<?xml version="1.0" encoding="UTF-8"?>
<svg xmlns="http://www.w3.org/2000/svg" xmlns:xlink="http://www.w3.org/1999/xlink" width="32px" height="32px" viewBox="0 0 32 32" version="1.1">
<defs>
<clipPath id="clip1">
  <path d="M 6.5 0 L 25.5 0 C 29.089844 0 32 2.910156 32 6.5 L 32 25.5 C 32 29.089844 29.089844 32 25.5 32 L 6.5 32 C 2.910156 32 0 29.089844 0 25.5 L 0 6.5 C 0 2.910156 2.910156 0 6.5 0 Z M 6.5 0 "/>
</clipPath>
<clipPath id="clip2">
  <path d="M 0 0 L 32 0 L 32 21 L 0 21 Z M 0 0 "/>
</clipPath>
<clipPath id="clip3">
  <path d="M 6.5 0 L 25.5 0 C 29.089844 0 32 2.910156 32 6.5 L 32 25.5 C 32 29.089844 29.089844 32 25.5 32 L 6.5 32 C 2.910156 32 0 29.089844 0 25.5 L 0 6.5 C 0 2.910156 2.910156 0 6.5 0 Z M 6.5 0 "/>
</clipPath>
<clipPath id="clip4">
  <path d="M 0 12 L 32 12 L 32 32 L 0 32 Z M 0 12 "/>
</clipPath>
<clipPath id="clip5">
  <path d="M 6.5 0 L 25.5 0 C 29.089844 0 32 2.910156 32 6.5 L 32 25.5 C 32 29.089844 29.089844 32 25.5 32 L 6.5 32 C 2.910156 32 0 29.089844 0 25.5 L 0 6.5 C 0 2.910156 2.910156 0 6.5 0 Z M 6.5 0 "/>
</clipPath>
</defs>
<g id="surface1">
<g clip-path="url(#clip1)" clip-rule="nonzero">
<path style=" stroke:none;fill-rule:nonzero;fill:rgb(100%,100%,100%);fill-opacity:1;" d="M 6.5 0 L 25.5 0 C 29.089844 0 32 2.910156 32 6.5 L 32 25.5 C 32 29.089844 29.089844 32 25.5 32 L 6.5 32 C 2.910156 32 0 29.089844 0 25.5 L 0 6.5 C 0 2.910156 2.910156 0 6.5 0 Z M 6.5 0 "/>
<path style=" stroke:none;fill-rule:nonzero;fill:rgb(100%,100%,100%);fill-opacity:1;" d="M 0 6.667969 C 0 2.984375 2.984375 0 6.667969 0 L 25.332031 0 C 29.015625 0 32 2.984375 32 6.667969 L 32 25.332031 C 32 29.015625 29.015625 32 25.332031 32 L 6.667969 32 C 2.984375 32 0 29.015625 0 25.332031 Z M 0 6.667969 "/>
</g>
<g clip-path="url(#clip2)" clip-rule="nonzero">
<g clip-path="url(#clip3)" clip-rule="nonzero">
<path style=" stroke:none;fill-rule:nonzero;fill:rgb(100%,34.117647%,13.333333%);fill-opacity:1;" d="M 6.398438 0 C 2.867188 0 0 2.867188 0 6.398438 L 0 8.800781 L 7.855469 8.800781 C 8.628906 8.800781 9.320312 9.296875 9.5625 10.03125 L 13.152344 20.800781 L 18.847656 20.800781 L 22.4375 10.03125 C 22.679688 9.296875 23.371094 8.800781 24.144531 8.800781 L 32 8.800781 L 32 6.398438 C 32 2.867188 29.132812 0 25.601562 0 Z M 6.398438 0 "/>
</g>
</g>
<g clip-path="url(#clip4)" clip-rule="nonzero">
<g clip-path="url(#clip5)" clip-rule="nonzero">
<path style=" stroke:none;fill-rule:nonzero;fill:rgb(100%,34.117647%,13.333333%);fill-opacity:1;" d="M 32 12 L 25.152344 12 L 21.5625 22.769531 C 21.320312 23.503906 20.628906 24 19.855469 24 L 12.144531 24 C 11.371094 24 10.679688 23.503906 10.4375 22.769531 L 6.847656 12 L 0 12 L 0 25.601562 C 0 29.132812 2.867188 32 6.398438 32 L 25.601562 32 C 29.132812 32 32 29.132812 32 25.601562 Z M 32 12 "/>
</g>
</g>
</g>
</svg>
